# xmcd CD database file
#
# Track frame offsets:
#	150
#	17035
#	36220
#	51185
#	66165
#	82040
#	97235
#	113505
#	129285
#	149660
#	165355
#	177230
#	195385
#	213605
#
# Disc length: 2952 seconds
#
# Revision: 0
# Processed by: cddbd v1.5.2PL0 Copyright (c) Steve Scherf et al.
# Submitted via: CDex 1.51
#
DISCID=c40b860e
DTITLE=Vários - Galpão Crioulo - 15 Anos
DYEAR=1997
DGENRE=Country
TTITLE0=Oswaldir and Carlos Magrão - Querência Amada
TTITLE1=Rui Biriva - Castelhana
TTITLE2=Mano Lima - Carniça
TTITLE3=Gaúcho da Fronteira - Segura o Tchê
TTITLE4=Os Serranos - Tordilho Negro
TTITLE5=Os Monarcas - Rodeio da Vida
TTITLE6=Garotos de Ouro - Yahoo!
TTITLE7=Renato Borguetti - Milonga do Coração
TTITLE8=Wilson Paim - Saudade de Minha Terra
TTITLE9=Elton Saldanha - Eu Sou do Sul
TTITLE10=Dante Ramon Ledesma - Baile da Minha Terra
TTITLE11=Porca Véia - Sentado Sobre Um Arreio
TTITLE12=Leonardo - Gaúcho Macho
TTITLE13=Antonio Augusto Fagundes - Causo O Paraquedista
EXTD=YEAR: 1997
EXTT0=
EXTT1=
EXTT2=
EXTT3=
EXTT4=
EXTT5=
EXTT6=
EXTT7=
EXTT8=
EXTT9=
EXTT10=
EXTT11=
EXTT12=
EXTT13=
PLAYORDER=
